{
    "asset" : {
        "generator" : "Khronos glTF Blender I/O v1.7.33",
        "version" : "2.0"
    },
    "scene" : 0,
    "scenes" : [
        {
            "name" : "Scene",
            "nodes" : [
                0,
                1,
                2
            ]
        }
    ],
    "nodes" : [
        {
            "mesh" : 0,
            "name" : "Wall",
            "scale" : [
                19.91925811767578,
                19.91925811767578,
                19.91925811767578
            ],
            "translation" : [
                0,
                1.015851616859436,
                0
            ]
        },
        {
            "mesh" : 1,
            "name" : "Wood1",
            "scale" : [
                19.91925811767578,
                19.91925811767578,
                19.91925811767578
            ],
            "translation" : [
                0,
                1.015851616859436,
                0
            ]
        },
        {
            "mesh" : 2,
            "name" : "Wood2",
            "scale" : [
                19.91925811767578,
                19.91925811767578,
                19.91925811767578
            ],
            "translation" : [
                0,
                1.015851616859436,
                0
            ]
        }
    ],
    "materials" : [
        {
            "doubleSided" : true,
            "name" : "Wall",
            "pbrMetallicRoughness" : {
                "baseColorFactor" : [
                    0.004560441244393587,
                    0,
                    0.012216620147228241,
                    1
                ],
                "metallicFactor" : 0,
                "roughnessFactor" : 0.5149605870246887
            }
        },
        {
            "doubleSided" : true,
            "name" : "Wood1",
            "normalTexture" : {
                "index" : 0,
                "scale" : 0.5
            },
            "pbrMetallicRoughness" : {
                "baseColorTexture" : {
                    "index" : 1
                },
                "metallicRoughnessTexture" : {
                    "index" : 2
                }
            }
        },
        {
            "doubleSided" : true,
            "name" : "Wood2",
            "normalTexture" : {
                "index" : 3
            },
            "pbrMetallicRoughness" : {
                "baseColorTexture" : {
                    "index" : 4
                },
                "metallicRoughnessTexture" : {
                    "index" : 5
                }
            }
        }
    ],
    "meshes" : [
        {
            "name" : "Plane.004",
            "primitives" : [
                {
                    "attributes" : {
                        "POSITION" : 0,
                        "NORMAL" : 1,
                        "TEXCOORD_0" : 2
                    },
                    "indices" : 3,
                    "material" : 0
                }
            ]
        },
        {
            "name" : "Plane.002",
            "primitives" : [
                {
                    "attributes" : {
                        "POSITION" : 4,
                        "NORMAL" : 5,
                        "TEXCOORD_0" : 6
                    },
                    "indices" : 7,
                    "material" : 1
                }
            ]
        },
        {
            "name" : "Plane.003",
            "primitives" : [
                {
                    "attributes" : {
                        "POSITION" : 8,
                        "NORMAL" : 9,
                        "TEXCOORD_0" : 10
                    },
                    "indices" : 11,
                    "material" : 2
                }
            ]
        }
    ],
    "textures" : [
        {
            "sampler" : 0,
            "source" : 0
        },
        {
            "sampler" : 0,
            "source" : 1
        },
        {
            "sampler" : 0,
            "source" : 2
        },
        {
            "sampler" : 0,
            "source" : 3
        },
        {
            "sampler" : 0,
            "source" : 4
        },
        {
            "sampler" : 0,
            "source" : 5
        }
    ],
    "images" : [
        {
            "mimeType" : "image/jpeg",
            "name" : "Wood1_Normal",
            "uri" : "Wood1_Normal.jpg"
        },
        {
            "mimeType" : "image/jpeg",
            "name" : "Wood1_BaseColor",
            "uri" : "Wood1_BaseColor.jpg"
        },
        {
            "mimeType" : "image/jpeg",
            "name" : "Wood1_Metallic.png-Wood1_Roughness.png",
            "uri" : "Wood1_Metallic_png-Wood1_Roughness_png.jpg"
        },
        {
            "mimeType" : "image/jpeg",
            "name" : "Wood2_Normal",
            "uri" : "Wood2_Normal.jpg"
        },
        {
            "mimeType" : "image/jpeg",
            "name" : "Wood2_BaseColor",
            "uri" : "Wood2_BaseColor.jpg"
        },
        {
            "mimeType" : "image/jpeg",
            "name" : "Wood2_Metallic.png-Wood2_Roughness.png",
            "uri" : "Wood2_Metallic_png-Wood2_Roughness_png.jpg"
        }
    ],
    "accessors" : [
        {
            "bufferView" : 0,
            "componentType" : 5126,
            "count" : 4,
            "max" : [
                1.533538818359375,
                1.2400054931640625,
                -0.3031172752380371
            ],
            "min" : [
                -1.7974214553833008,
                -0.27356812357902527,
                -0.3031177520751953
            ],
            "type" : "VEC3"
        },
        {
            "bufferView" : 1,
            "componentType" : 5126,
            "count" : 4,
            "type" : "VEC3"
        },
        {
            "bufferView" : 2,
            "componentType" : 5126,
            "count" : 4,
            "type" : "VEC2"
        },
        {
            "bufferView" : 3,
            "componentType" : 5123,
            "count" : 6,
            "type" : "SCALAR"
        },
        {
            "bufferView" : 4,
            "componentType" : 5126,
            "count" : 12,
            "max" : [
                1.4733867645263672,
                -0.05099853128194809,
                0.17044293880462646
            ],
            "min" : [
                -1.5728299617767334,
                -0.07356946915388107,
                -0.2982527017593384
            ],
            "type" : "VEC3"
        },
        {
            "bufferView" : 5,
            "componentType" : 5126,
            "count" : 12,
            "type" : "VEC3"
        },
        {
            "bufferView" : 6,
            "componentType" : 5126,
            "count" : 12,
            "type" : "VEC2"
        },
        {
            "bufferView" : 7,
            "componentType" : 5123,
            "count" : 30,
            "type" : "SCALAR"
        },
        {
            "bufferView" : 8,
            "componentType" : 5126,
            "count" : 12,
            "max" : [
                1.1129419803619385,
                -0.07415620237588882,
                0.20223402976989746
            ],
            "min" : [
                -1.2123850584030151,
                -0.18039482831954956,
                -0.14157629013061523
            ],
            "type" : "VEC3"
        },
        {
            "bufferView" : 9,
            "componentType" : 5126,
            "count" : 12,
            "type" : "VEC3"
        },
        {
            "bufferView" : 10,
            "componentType" : 5126,
            "count" : 12,
            "type" : "VEC2"
        },
        {
            "bufferView" : 11,
            "componentType" : 5123,
            "count" : 30,
            "type" : "SCALAR"
        }
    ],
    "bufferViews" : [
        {
            "buffer" : 0,
            "byteLength" : 48,
            "byteOffset" : 0
        },
        {
            "buffer" : 0,
            "byteLength" : 48,
            "byteOffset" : 48
        },
        {
            "buffer" : 0,
            "byteLength" : 32,
            "byteOffset" : 96
        },
        {
            "buffer" : 0,
            "byteLength" : 12,
            "byteOffset" : 128
        },
        {
            "buffer" : 0,
            "byteLength" : 144,
            "byteOffset" : 140
        },
        {
            "buffer" : 0,
            "byteLength" : 144,
            "byteOffset" : 284
        },
        {
            "buffer" : 0,
            "byteLength" : 96,
            "byteOffset" : 428
        },
        {
            "buffer" : 0,
            "byteLength" : 60,
            "byteOffset" : 524
        },
        {
            "buffer" : 0,
            "byteLength" : 144,
            "byteOffset" : 584
        },
        {
            "buffer" : 0,
            "byteLength" : 144,
            "byteOffset" : 728
        },
        {
            "buffer" : 0,
            "byteLength" : 96,
            "byteOffset" : 872
        },
        {
            "buffer" : 0,
            "byteLength" : 60,
            "byteOffset" : 968
        }
    ],
    "samplers" : [
        {
            "magFilter" : 9729,
            "minFilter" : 9987
        }
    ],
    "buffers" : [
        {
            "byteLength" : 1028,
            "uri" : "Entorno2.bin"
        }
    ]
}
