{
    "asset" : {
        "generator" : "Khronos glTF Blender I/O v1.7.33",
        "version" : "2.0"
    },
    "scene" : 0,
    "scenes" : [
        {
            "name" : "Scene",
            "nodes" : [
                0,
                1
            ]
        }
    ],
    "nodes" : [
        {
            "mesh" : 0,
            "name" : "Caja Soporte",
            "scale" : [
                20.61979103088379,
                20.61979103088379,
                20.61979103088379
            ],
            "translation" : [
                -3.1565816402435303,
                0.4312228262424469,
                0.4987409710884094
            ]
        },
        {
            "mesh" : 1,
            "name" : "Plane",
            "scale" : [
                20.61979103088379,
                20.61979103088379,
                20.61979103088379
            ],
            "translation" : [
                2.8645732402801514,
                -0.39133134484291077,
                -0.4526035189628601
            ]
        }
    ],
    "materials" : [
        {
            "doubleSided" : true,
            "name" : "Caja_soporte",
            "pbrMetallicRoughness" : {
                "baseColorFactor" : [
                    0.800000011920929,
                    0.800000011920929,
                    0.800000011920929,
                    1
                ],
                "metallicFactor" : 0,
                "roughnessFactor" : 0.5
            }
        },
        {
            "doubleSided" : true,
            "name" : "Plane",
            "pbrMetallicRoughness" : {
                "baseColorTexture" : {
                    "index" : 0
                },
                "metallicFactor" : 0,
                "roughnessFactor" : 0.539370059967041
            }
        }
    ],
    "meshes" : [
        {
            "name" : "Plane.001",
            "primitives" : [
                {
                    "attributes" : {
                        "POSITION" : 0,
                        "NORMAL" : 1,
                        "TEXCOORD_0" : 2
                    },
                    "indices" : 3,
                    "material" : 0
                }
            ]
        },
        {
            "name" : "Plane",
            "primitives" : [
                {
                    "attributes" : {
                        "POSITION" : 4,
                        "NORMAL" : 5,
                        "TEXCOORD_0" : 6
                    },
                    "indices" : 7,
                    "material" : 1
                }
            ]
        }
    ],
    "textures" : [
        {
            "sampler" : 0,
            "source" : 0
        }
    ],
    "images" : [
        {
            "mimeType" : "image/jpeg",
            "name" : "Plano",
            "uri" : "Plano.jpg"
        }
    ],
    "accessors" : [
        {
            "bufferView" : 0,
            "componentType" : 5126,
            "count" : 24,
            "max" : [
                0.14537347853183746,
                0.040841344743967056,
                0.092536561191082
            ],
            "min" : [
                -0.14537356793880463,
                -0.040841344743967056,
                -0.0925365686416626
            ],
            "type" : "VEC3"
        },
        {
            "bufferView" : 1,
            "componentType" : 5126,
            "count" : 24,
            "type" : "VEC3"
        },
        {
            "bufferView" : 2,
            "componentType" : 5126,
            "count" : 24,
            "type" : "VEC2"
        },
        {
            "bufferView" : 3,
            "componentType" : 5123,
            "count" : 36,
            "type" : "SCALAR"
        },
        {
            "bufferView" : 4,
            "componentType" : 5126,
            "count" : 28,
            "max" : [
                1.7494176626205444,
                0.5937981605529785,
                1.1521897315979004
            ],
            "min" : [
                -2.077702283859253,
                1.4901161193847656e-08,
                -0.8920198678970337
            ],
            "type" : "VEC3"
        },
        {
            "bufferView" : 5,
            "componentType" : 5126,
            "count" : 28,
            "type" : "VEC3"
        },
        {
            "bufferView" : 6,
            "componentType" : 5126,
            "count" : 28,
            "type" : "VEC2"
        },
        {
            "bufferView" : 7,
            "componentType" : 5123,
            "count" : 72,
            "type" : "SCALAR"
        }
    ],
    "bufferViews" : [
        {
            "buffer" : 0,
            "byteLength" : 288,
            "byteOffset" : 0
        },
        {
            "buffer" : 0,
            "byteLength" : 288,
            "byteOffset" : 288
        },
        {
            "buffer" : 0,
            "byteLength" : 192,
            "byteOffset" : 576
        },
        {
            "buffer" : 0,
            "byteLength" : 72,
            "byteOffset" : 768
        },
        {
            "buffer" : 0,
            "byteLength" : 336,
            "byteOffset" : 840
        },
        {
            "buffer" : 0,
            "byteLength" : 336,
            "byteOffset" : 1176
        },
        {
            "buffer" : 0,
            "byteLength" : 224,
            "byteOffset" : 1512
        },
        {
            "buffer" : 0,
            "byteLength" : 144,
            "byteOffset" : 1736
        }
    ],
    "samplers" : [
        {
            "magFilter" : 9729,
            "minFilter" : 9987
        }
    ],
    "buffers" : [
        {
            "byteLength" : 1880,
            "uri" : "entorno5.bin"
        }
    ]
}
